{
  "asset": {
    "version": "2.0",
    "generator": "THREE.GLTFExporter"
  },
  "scenes": [
    {
      "nodes": [
        0
      ]
    }
  ],
  "scene": 0,
  "nodes": [
    {
      "children": [
        18
      ],
      "matrix": [
        0.01,
        0,
        0,
        0,
        0,
        0.01,
        0,
        0,
        0,
        0,
        0.01,
        0,
        0,
        0,
        0,
        1
      ]
    },
    {
      "matrix": [
        1,
        0,
        0,
        0,
        0,
        1,
        0,
        0,
        0,
        0,
        1,
        0,
        21.268721690794642,
        22.5561353944044,
        -12.03341400291652,
        1
      ],
      "name": "Boolean",
      "mesh": 0
    },
    {
      "matrix": [
        7.407231320883846e-17,
        -0.06354134136491343,
        -7.781570031606853e-18,
        0,
        0.06354134136491343,
        7.407231320883846e-17,
        3.211150754361541e-32,
        0,
        1.9983789129687486e-33,
        -7.781570031607103e-18,
        0.06354134136491342,
        0,
        -8.93333829405616e-31,
        -3.4557043452580736e-16,
        -2.655747477447278,
        0.9999999999999998
      ],
      "name": "Ellipse 2",
      "mesh": 1
    },
    {
      "matrix": [
        -1.1567049687925781e-15,
        -2.604668033215928,
        2.983737750616147e-30,
        0,
        2.604668033215928,
        -1.1567049687925781e-15,
        -4.0895696363270703e-16,
        0,
        4.089569636326989e-16,
        2.0547207824829494e-30,
        2.6046680332159275,
        0,
        1.4952928221002366e-29,
        -2.331153737466177e-30,
        -5.477544217261639,
        1
      ],
      "name": "Ellipse",
      "mesh": 2
    },
    {
      "name": "Clone 0",
      "children": [
        2,
        3
      ]
    },
    {
      "matrix": [
        7.407231320883846e-17,
        -0.06354134136491343,
        -7.781570031606853e-18,
        0,
        0.06354134136491343,
        7.407231320883846e-17,
        3.211150754361541e-32,
        0,
        1.9983789129687486e-33,
        -7.781570031607103e-18,
        0.06354134136491342,
        0,
        -8.93333829405616e-31,
        -3.4557043452580736e-16,
        -2.655747477447278,
        0.9999999999999998
      ],
      "name": "Ellipse 2",
      "mesh": 3
    },
    {
      "matrix": [
        -1.1567049687925781e-15,
        -2.604668033215928,
        2.983737750616147e-30,
        0,
        2.604668033215928,
        -1.1567049687925781e-15,
        -4.0895696363270703e-16,
        0,
        4.089569636326989e-16,
        2.0547207824829494e-30,
        2.6046680332159275,
        0,
        1.4952928221002366e-29,
        -2.331153737466177e-30,
        -5.477544217261639,
        1
      ],
      "name": "Ellipse",
      "mesh": 2
    },
    {
      "matrix": [
        1,
        0,
        0,
        0,
        0,
        1,
        0,
        0,
        0,
        0,
        1,
        0,
        42,
        0,
        0,
        1
      ],
      "name": "Clone 2",
      "children": [
        5,
        6
      ]
    },
    {
      "matrix": [
        7.407231320883846e-17,
        -0.06354134136491343,
        -7.781570031606853e-18,
        0,
        0.06354134136491343,
        7.407231320883846e-17,
        3.211150754361541e-32,
        0,
        1.9983789129687486e-33,
        -7.781570031607103e-18,
        0.06354134136491342,
        0,
        -8.93333829405616e-31,
        -3.4557043452580736e-16,
        -2.655747477447278,
        0.9999999999999998
      ],
      "name": "Ellipse 2",
      "mesh": 4
    },
    {
      "matrix": [
        -1.1567049687925781e-15,
        -2.604668033215928,
        2.983737750616147e-30,
        0,
        2.604668033215928,
        -1.1567049687925781e-15,
        -4.0895696363270703e-16,
        0,
        4.089569636326989e-16,
        2.0547207824829494e-30,
        2.6046680332159275,
        0,
        1.4952928221002366e-29,
        -2.331153737466177e-30,
        -5.477544217261639,
        1
      ],
      "name": "Ellipse",
      "mesh": 2
    },
    {
      "matrix": [
        1,
        0,
        0,
        0,
        0,
        -1,
        -1.2246467991473532e-16,
        0,
        0,
        1.2246467991473532e-16,
        -1,
        0,
        0,
        0,
        -35,
        1
      ],
      "name": "Clone 1",
      "children": [
        8,
        9
      ]
    },
    {
      "matrix": [
        7.407231320883846e-17,
        -0.06354134136491343,
        -7.781570031606853e-18,
        0,
        0.06354134136491343,
        7.407231320883846e-17,
        3.211150754361541e-32,
        0,
        1.9983789129687486e-33,
        -7.781570031607103e-18,
        0.06354134136491342,
        0,
        -8.93333829405616e-31,
        -3.4557043452580736e-16,
        -2.655747477447278,
        0.9999999999999998
      ],
      "name": "Ellipse 2",
      "mesh": 5
    },
    {
      "matrix": [
        -1.1567049687925781e-15,
        -2.604668033215928,
        2.983737750616147e-30,
        0,
        2.604668033215928,
        -1.1567049687925781e-15,
        -4.0895696363270703e-16,
        0,
        4.089569636326989e-16,
        2.0547207824829494e-30,
        2.6046680332159275,
        0,
        1.4952928221002366e-29,
        -2.331153737466177e-30,
        -5.477544217261639,
        1
      ],
      "name": "Ellipse",
      "mesh": 2
    },
    {
      "matrix": [
        1,
        0,
        0,
        0,
        0,
        -1,
        -1.2246467991473532e-16,
        0,
        0,
        1.2246467991473532e-16,
        -1,
        0,
        42,
        0,
        -35,
        1
      ],
      "name": "Clone 3",
      "children": [
        11,
        12
      ]
    },
    {
      "matrix": [
        1,
        0,
        0,
        0,
        0,
        1,
        0,
        0,
        0,
        0,
        1,
        0,
        0,
        0,
        5.47754421726164,
        1
      ],
      "name": "Tire Clones",
      "children": [
        4,
        7,
        10,
        13
      ]
    },
    {
      "matrix": [
        0.5883484054145521,
        0.39223227027636803,
        -0.7071067811865475,
        0,
        -0.554700196225229,
        0.8320502943378437,
        0,
        0,
        0.588348405414552,
        0.392232270276368,
        0.7071067811865476,
        0,
        0,
        0,
        0,
        1
      ],
      "name": "Directional Light",
      "extensions": {
        "KHR_lights_punctual": {
          "light": 0
        }
      }
    },
    {
      "matrix": [
        0.6784357451869676,
        1.2711604602255733e-8,
        -0.734659744135068,
        0,
        -0.3833532678471209,
        0.8530613525971998,
        -0.35401497247428576,
        0,
        0.6267098305304755,
        0.521810625327844,
        0.578747319312519,
        0,
        268.8911862786998,
        214.42185829354793,
        265.10138887457293,
        1
      ],
      "camera": 0
    },
    {
      "matrix": [
        1,
        0,
        0,
        0,
        0,
        1,
        0,
        0,
        0,
        0,
        1,
        0,
        0,
        1,
        0,
        1
      ],
      "name": "Default Ambient Light"
    },
    {
      "name": "Scene 1",
      "children": [
        1,
        14,
        15,
        16,
        17
      ]
    }
  ],
  "bufferViews": [
    {
      "buffer": 0,
      "byteOffset": 0,
      "byteLength": 22752,
      "target": 34962,
      "byteStride": 12
    },
    {
      "buffer": 0,
      "byteOffset": 22752,
      "byteLength": 22752,
      "target": 34962,
      "byteStride": 12
    },
    {
      "buffer": 0,
      "byteOffset": 45504,
      "byteLength": 4656,
      "target": 34962,
      "byteStride": 12
    },
    {
      "buffer": 0,
      "byteOffset": 50160,
      "byteLength": 4656,
      "target": 34962,
      "byteStride": 12
    },
    {
      "buffer": 0,
      "byteOffset": 54816,
      "byteLength": 3104,
      "target": 34962,
      "byteStride": 8
    },
    {
      "buffer": 0,
      "byteOffset": 57920,
      "byteLength": 6096,
      "target": 34963
    },
    {
      "buffer": 0,
      "byteOffset": 64016,
      "byteLength": 12528,
      "target": 34962,
      "byteStride": 12
    },
    {
      "buffer": 0,
      "byteOffset": 76544,
      "byteLength": 12528,
      "target": 34962,
      "byteStride": 12
    },
    {
      "buffer": 0,
      "byteOffset": 89072,
      "byteLength": 8352,
      "target": 34962,
      "byteStride": 8
    },
    {
      "buffer": 0,
      "byteOffset": 97424,
      "byteLength": 18432,
      "target": 34963
    }
  ],
  "buffers": [
    {
      "byteLength": 115856,
      "uri": "data:application/octet-stream;base64,"
    }
  ],
  "accessors": [
    {
      "bufferView": 0,
      "componentType": 5126,
      "count": 1896,
      "max": [
        38,
        23,
        20.5
      ],
      "min": [
        -38,
        -23,
        -20.5
      ],
      "type": "VEC3"
    },
    {
      "bufferView": 1,
      "componentType": 5126,
      "count": 1896,
      "max": [
        1,
        1,
        1
      ],
      "min": [
        -1,
        -1,
        -1
      ],
      "type": "VEC3"
    },
    {
      "bufferView": 2,
      "componentType": 5126,
      "count": 388,
      "max": [
        50,
        50,
        128
      ],
      "min": [
        -50,
        -50,
        0
      ],
      "type": "VEC3"
    },
    {
      "bufferView": 3,
      "componentType": 5126,
      "count": 388,
      "max": [
        0.9987275004386902,
        0.9987275004386902,
        1
      ],
      "min": [
        -0.9987275004386902,
        -0.9987275004386902,
        -1
      ],
      "type": "VEC3"
    },
    {
      "bufferView": 4,
      "componentType": 5126,
      "count": 388,
      "max": [
        1,
        1
      ],
      "min": [
        0,
        0
      ],
      "type": "VEC2"
    },
    {
      "bufferView": 5,
      "componentType": 5125,
      "count": 1524,
      "max": [
        387
      ],
      "min": [
        0
      ],
      "type": "SCALAR"
    },
    {
      "bufferView": 6,
      "componentType": 5126,
      "count": 1044,
      "max": [
        3.5,
        3.5,
        4
      ],
      "min": [
        -3.5,
        -3.5,
        0
      ],
      "type": "VEC3"
    },
    {
      "bufferView": 7,
      "componentType": 5126,
      "count": 1044,
      "max": [
        0.9987275004386902,
        0.9987275004386902,
        1
      ],
      "min": [
        -0.9987275004386902,
        -0.9987275004386902,
        -1
      ],
      "type": "VEC3"
    },
    {
      "bufferView": 8,
      "componentType": 5126,
      "count": 1044,
      "max": [
        1,
        1
      ],
      "min": [
        0,
        0
      ],
      "type": "VEC2"
    },
    {
      "bufferView": 9,
      "componentType": 5125,
      "count": 4608,
      "max": [
        1043
      ],
      "min": [
        0
      ],
      "type": "SCALAR"
    }
  ],
  "materials": [
    {
      "pbrMetallicRoughness": {
        "baseColorFactor": [
          0.4641866536805105,
          0.039240444454020654,
          0.039240444454020654,
          1
        ],
        "metallicFactor": 0,
        "roughnessFactor": 1
      },
      "doubleSided": false
    },
    {
      "pbrMetallicRoughness": {
        "baseColorFactor": [
          0.5726117630130761,
          0.3711049039918572,
          0.01807175033935445,
          1
        ],
        "metallicFactor": 0,
        "roughnessFactor": 1
      },
      "doubleSided": false
    },
    {
      "pbrMetallicRoughness": {
        "baseColorFactor": [
          0.022446919011027203,
          0.022446919011027203,
          0.022446919011027203,
          1
        ],
        "metallicFactor": 0,
        "roughnessFactor": 1
      },
      "doubleSided": false
    },
    {
      "pbrMetallicRoughness": {
        "baseColorFactor": [
          0.5726117630130761,
          0.3711049039918572,
          0.01807175033935445,
          1
        ],
        "metallicFactor": 0,
        "roughnessFactor": 1
      },
      "doubleSided": false
    },
    {
      "pbrMetallicRoughness": {
        "baseColorFactor": [
          0.5726117630130761,
          0.3711049039918572,
          0.01807175033935445,
          1
        ],
        "metallicFactor": 0,
        "roughnessFactor": 1
      },
      "doubleSided": false
    },
    {
      "pbrMetallicRoughness": {
        "baseColorFactor": [
          0.5726117630130761,
          0.3711049039918572,
          0.01807175033935445,
          1
        ],
        "metallicFactor": 0,
        "roughnessFactor": 1
      },
      "doubleSided": false
    }
  ],
  "meshes": [
    {
      "primitives": [
        {
          "mode": 4,
          "attributes": {
            "POSITION": 0,
            "NORMAL": 1
          },
          "extras": {
            "parameters": {
              "width": 76,
              "height": 46,
              "depth": 41
            }
          },
          "material": 0
        }
      ]
    },
    {
      "primitives": [
        {
          "mode": 4,
          "attributes": {
            "POSITION": 2,
            "NORMAL": 3,
            "TEXCOORD_0": 4
          },
          "extras": {
            "shape": {
              "points": [
                -50,
                0,
                -50,
                -27.614237489999997,
                -50,
                27.614237489999997,
                0,
                0,
                50,
                -27.614237489999997,
                50,
                27.614237489999997,
                50,
                0,
                50,
                0,
                50,
                27.614237489999997,
                50,
                -27.614237489999997,
                0,
                0,
                -50,
                27.614237489999997,
                -50,
                -27.614237489999997,
                -50,
                0
              ],
              "shapeHoles": [],
              "isClosed": true,
              "roundness": 0
            },
            "parameters": {
              "width": 100,
              "depth": 128,
              "spikes": 64,
              "angle": 360,
              "innerRadius": 0,
              "extrudeBevelSize": 10,
              "extrudeBevelSegments": 1,
              "height": 100,
              "type": "EllipseGeometry"
            },
            "type": "EllipseGeometry"
          },
          "indices": 5,
          "material": 1
        }
      ]
    },
    {
      "primitives": [
        {
          "mode": 4,
          "attributes": {
            "POSITION": 6,
            "NORMAL": 7,
            "TEXCOORD_0": 8
          },
          "extras": {
            "shape": {
              "points": [
                -3.5,
                0,
                -3.5,
                -1.9329966242999999,
                -3.5,
                1.9329966242999999,
                0,
                0,
                3.5,
                -1.9329966242999999,
                3.5,
                1.9329966242999999,
                3.5,
                0,
                3.5,
                0,
                3.5,
                1.9329966242999999,
                3.5,
                -1.9329966242999999,
                0,
                0,
                -3.5,
                1.9329966242999999,
                -3.5,
                -1.9329966242999999,
                -3.5,
                0
              ],
              "shapeHoles": [
                {
                  "points": [
                    0,
                    -0.875,
                    -0.48324915607499996,
                    -0.875,
                    0.48324915607499996,
                    -0.875,
                    0,
                    0.875,
                    0,
                    0.875,
                    -0.48324915607499996,
                    0.875,
                    0.48324915607499996,
                    0,
                    0,
                    0.875,
                    0.48324915607499996,
                    0.875,
                    -0.48324915607499996,
                    0.875,
                    0,
                    -0.875,
                    0,
                    -0.875,
                    0.48324915607499996,
                    -0.875,
                    -0.48324915607499996,
                    0
                  ],
                  "shapeHoles": [],
                  "isClosed": true,
                  "roundness": 0
                }
              ],
              "isClosed": true,
              "roundness": 0
            },
            "parameters": {
              "width": 7,
              "depth": 4,
              "spikes": 64,
              "angle": 360,
              "innerRadius": 25,
              "extrudeBevelSize": 0.75,
              "extrudeBevelSegments": 2,
              "height": 7,
              "type": "EllipseGeometry"
            },
            "type": "EllipseGeometry"
          },
          "indices": 9,
          "material": 2
        }
      ]
    },
    {
      "primitives": [
        {
          "mode": 4,
          "attributes": {
            "POSITION": 2,
            "NORMAL": 3,
            "TEXCOORD_0": 4
          },
          "extras": {
            "shape": {
              "points": [
                -50,
                0,
                -50,
                -27.614237489999997,
                -50,
                27.614237489999997,
                0,
                0,
                50,
                -27.614237489999997,
                50,
                27.614237489999997,
                50,
                0,
                50,
                0,
                50,
                27.614237489999997,
                50,
                -27.614237489999997,
                0,
                0,
                -50,
                27.614237489999997,
                -50,
                -27.614237489999997,
                -50,
                0
              ],
              "shapeHoles": [],
              "isClosed": true,
              "roundness": 0
            },
            "parameters": {
              "width": 100,
              "depth": 128,
              "spikes": 64,
              "angle": 360,
              "innerRadius": 0,
              "extrudeBevelSize": 10,
              "extrudeBevelSegments": 1,
              "height": 100,
              "type": "EllipseGeometry"
            },
            "type": "EllipseGeometry"
          },
          "indices": 5,
          "material": 3
        }
      ]
    },
    {
      "primitives": [
        {
          "mode": 4,
          "attributes": {
            "POSITION": 2,
            "NORMAL": 3,
            "TEXCOORD_0": 4
          },
          "extras": {
            "shape": {
              "points": [
                -50,
                0,
                -50,
                -27.614237489999997,
                -50,
                27.614237489999997,
                0,
                0,
                50,
                -27.614237489999997,
                50,
                27.614237489999997,
                50,
                0,
                50,
                0,
                50,
                27.614237489999997,
                50,
                -27.614237489999997,
                0,
                0,
                -50,
                27.614237489999997,
                -50,
                -27.614237489999997,
                -50,
                0
              ],
              "shapeHoles": [],
              "isClosed": true,
              "roundness": 0
            },
            "parameters": {
              "width": 100,
              "depth": 128,
              "spikes": 64,
              "angle": 360,
              "innerRadius": 0,
              "extrudeBevelSize": 10,
              "extrudeBevelSegments": 1,
              "height": 100,
              "type": "EllipseGeometry"
            },
            "type": "EllipseGeometry"
          },
          "indices": 5,
          "material": 4
        }
      ]
    },
    {
      "primitives": [
        {
          "mode": 4,
          "attributes": {
            "POSITION": 2,
            "NORMAL": 3,
            "TEXCOORD_0": 4
          },
          "extras": {
            "shape": {
              "points": [
                -50,
                0,
                -50,
                -27.614237489999997,
                -50,
                27.614237489999997,
                0,
                0,
                50,
                -27.614237489999997,
                50,
                27.614237489999997,
                50,
                0,
                50,
                0,
                50,
                27.614237489999997,
                50,
                -27.614237489999997,
                0,
                0,
                -50,
                27.614237489999997,
                -50,
                -27.614237489999997,
                -50,
                0
              ],
              "shapeHoles": [],
              "isClosed": true,
              "roundness": 0
            },
            "parameters": {
              "width": 100,
              "depth": 128,
              "spikes": 64,
              "angle": 360,
              "innerRadius": 0,
              "extrudeBevelSize": 10,
              "extrudeBevelSegments": 1,
              "height": 100,
              "type": "EllipseGeometry"
            },
            "type": "EllipseGeometry"
          },
          "indices": 5,
          "material": 5
        }
      ]
    }
  ],
  "extensions": {
    "KHR_lights_punctual": {
      "lights": [
        {
          "name": "Directional Light",
          "color": [
            1,
            1,
            1
          ],
          "intensity": 0.7,
          "type": "directional"
        }
      ]
    }
  },
  "cameras": [
    {
      "type": "perspective",
      "perspective": {
        "aspectRatio": 1.6763678696158324,
        "yfov": 0.7853981633974483,
        "zfar": 100000,
        "znear": 70
      }
    }
  ],
  "extensionsUsed": [
    "KHR_lights_punctual"
  ]
}