{
	"asset":{
		"generator":"Khronos glTF Blender I/O v4.2.69",
		"version":"2.0"
	},
	"scene":0,
	"scenes":[
		{
			"name":"Scene",
			"nodes":[
				0,
				1,
				2,
				3,
				4
			]
		}
	],
	"nodes":[
		{
			"mesh":0,
			"name":"Train v5.002",
			"rotation":[
				0.7071068286895752,
				0,
				0,
				0.7071068286895752
			]
		},
		{
			"mesh":1,
			"name":"Train v5.004",
			"rotation":[
				0.7071068286895752,
				0,
				0,
				0.7071068286895752
			]
		},
		{
			"mesh":2,
			"name":"Train v5.008",
			"rotation":[
				0.7071068286895752,
				0,
				0,
				0.7071068286895752
			]
		},
		{
			"mesh":3,
			"name":"Train v5.010",
			"rotation":[
				0.7071068286895752,
				0,
				0,
				0.7071068286895752
			]
		},
		{
			"mesh":4,
			"name":"Train v5.011",
			"rotation":[
				0.7071068286895752,
				0,
				0,
				0.7071068286895752
			]
		}
	],
	"materials":[
		{
			"doubleSided":true,
			"name":"Material.001",
			"pbrMetallicRoughness":{
				"baseColorTexture":{
					"index":0
				},
				"metallicFactor":0,
				"roughnessFactor":0.5
			}
		},
		{
			"doubleSided":true,
			"name":"Steel_-_Satin"
		}
	],
	"meshes":[
		{
			"name":"Train v5.002",
			"primitives":[
				{
					"attributes":{
						"POSITION":0,
						"NORMAL":1,
						"TEXCOORD_0":2,
						"COLOR_0":3,
						"COLOR_1":4
					},
					"indices":5,
					"material":0
				}
			]
		},
		{
			"name":"Train v5.004",
			"primitives":[
				{
					"attributes":{
						"POSITION":6,
						"NORMAL":7,
						"TEXCOORD_0":8,
						"COLOR_0":9,
						"COLOR_1":10
					},
					"indices":11,
					"material":1
				}
			]
		},
		{
			"name":"Train v5.008",
			"primitives":[
				{
					"attributes":{
						"POSITION":12,
						"NORMAL":13,
						"TEXCOORD_0":14
					},
					"indices":15,
					"material":1
				}
			]
		},
		{
			"name":"Train v5.010",
			"primitives":[
				{
					"attributes":{
						"POSITION":16,
						"NORMAL":17,
						"TEXCOORD_0":18
					},
					"indices":19,
					"material":1
				}
			]
		},
		{
			"name":"Train v5.011",
			"primitives":[
				{
					"attributes":{
						"POSITION":20,
						"NORMAL":21,
						"TEXCOORD_0":22
					},
					"indices":23,
					"material":1
				}
			]
		}
	],
	"textures":[
		{
			"sampler":0,
			"source":0
		}
	],
	"images":[
		{
			"mimeType":"image/png",
			"name":"test2",
			"uri":"test2.png"
		}
	],
	"accessors":[
		{
			"bufferView":0,
			"componentType":5126,
			"count":4395,
			"max":[
				10,
				0.20000000298023224,
				2
			],
			"min":[
				-0.5,
				-5.199999809265137,
				-6
			],
			"type":"VEC3"
		},
		{
			"bufferView":1,
			"componentType":5126,
			"count":4395,
			"type":"VEC3"
		},
		{
			"bufferView":2,
			"componentType":5126,
			"count":4395,
			"type":"VEC2"
		},
		{
			"bufferView":3,
			"componentType":5121,
			"count":4395,
			"normalized":true,
			"type":"VEC4"
		},
		{
			"bufferView":4,
			"componentType":5126,
			"count":4395,
			"type":"VEC3"
		},
		{
			"bufferView":5,
			"componentType":5123,
			"count":9108,
			"type":"SCALAR"
		},
		{
			"bufferView":6,
			"componentType":5126,
			"count":2477,
			"max":[
				-1.5,
				0.20000000298023224,
				2
			],
			"min":[
				-12.5,
				-5.199999809265137,
				-6
			],
			"type":"VEC3"
		},
		{
			"bufferView":7,
			"componentType":5126,
			"count":2477,
			"type":"VEC3"
		},
		{
			"bufferView":8,
			"componentType":5126,
			"count":2477,
			"type":"VEC2"
		},
		{
			"bufferView":9,
			"componentType":5121,
			"count":2477,
			"normalized":true,
			"type":"VEC4"
		},
		{
			"bufferView":10,
			"componentType":5126,
			"count":2477,
			"type":"VEC3"
		},
		{
			"bufferView":11,
			"componentType":5123,
			"count":4908,
			"type":"SCALAR"
		},
		{
			"bufferView":12,
			"componentType":5126,
			"count":1311,
			"max":[
				-14,
				0.20000000298023224,
				2
			],
			"min":[
				-24,
				-5.199999809265137,
				-3
			],
			"type":"VEC3"
		},
		{
			"bufferView":13,
			"componentType":5126,
			"count":1311,
			"type":"VEC3"
		},
		{
			"bufferView":14,
			"componentType":5126,
			"count":1311,
			"type":"VEC2"
		},
		{
			"bufferView":15,
			"componentType":5123,
			"count":2316,
			"type":"SCALAR"
		},
		{
			"bufferView":16,
			"componentType":5126,
			"count":1105,
			"max":[
				-26,
				0.20000000298023224,
				2
			],
			"min":[
				-36,
				-5.199999809265137,
				-5.5
			],
			"type":"VEC3"
		},
		{
			"bufferView":17,
			"componentType":5126,
			"count":1105,
			"type":"VEC3"
		},
		{
			"bufferView":18,
			"componentType":5126,
			"count":1105,
			"type":"VEC2"
		},
		{
			"bufferView":19,
			"componentType":5123,
			"count":1956,
			"type":"SCALAR"
		},
		{
			"bufferView":20,
			"componentType":5126,
			"count":1083,
			"max":[
				-38,
				0.20000000298023224,
				2
			],
			"min":[
				-48,
				-5.199999809265137,
				-0.5
			],
			"type":"VEC3"
		},
		{
			"bufferView":21,
			"componentType":5126,
			"count":1083,
			"type":"VEC3"
		},
		{
			"bufferView":22,
			"componentType":5126,
			"count":1083,
			"type":"VEC2"
		},
		{
			"bufferView":23,
			"componentType":5123,
			"count":1920,
			"type":"SCALAR"
		}
	],
	"bufferViews":[
		{
			"buffer":0,
			"byteLength":52740,
			"byteOffset":0,
			"target":34962
		},
		{
			"buffer":0,
			"byteLength":52740,
			"byteOffset":52740,
			"target":34962
		},
		{
			"buffer":0,
			"byteLength":35160,
			"byteOffset":105480,
			"target":34962
		},
		{
			"buffer":0,
			"byteLength":17580,
			"byteOffset":140640,
			"target":34962
		},
		{
			"buffer":0,
			"byteLength":52740,
			"byteOffset":158220,
			"target":34962
		},
		{
			"buffer":0,
			"byteLength":18216,
			"byteOffset":210960,
			"target":34963
		},
		{
			"buffer":0,
			"byteLength":29724,
			"byteOffset":229176,
			"target":34962
		},
		{
			"buffer":0,
			"byteLength":29724,
			"byteOffset":258900,
			"target":34962
		},
		{
			"buffer":0,
			"byteLength":19816,
			"byteOffset":288624,
			"target":34962
		},
		{
			"buffer":0,
			"byteLength":9908,
			"byteOffset":308440,
			"target":34962
		},
		{
			"buffer":0,
			"byteLength":29724,
			"byteOffset":318348,
			"target":34962
		},
		{
			"buffer":0,
			"byteLength":9816,
			"byteOffset":348072,
			"target":34963
		},
		{
			"buffer":0,
			"byteLength":15732,
			"byteOffset":357888,
			"target":34962
		},
		{
			"buffer":0,
			"byteLength":15732,
			"byteOffset":373620,
			"target":34962
		},
		{
			"buffer":0,
			"byteLength":10488,
			"byteOffset":389352,
			"target":34962
		},
		{
			"buffer":0,
			"byteLength":4632,
			"byteOffset":399840,
			"target":34963
		},
		{
			"buffer":0,
			"byteLength":13260,
			"byteOffset":404472,
			"target":34962
		},
		{
			"buffer":0,
			"byteLength":13260,
			"byteOffset":417732,
			"target":34962
		},
		{
			"buffer":0,
			"byteLength":8840,
			"byteOffset":430992,
			"target":34962
		},
		{
			"buffer":0,
			"byteLength":3912,
			"byteOffset":439832,
			"target":34963
		},
		{
			"buffer":0,
			"byteLength":12996,
			"byteOffset":443744,
			"target":34962
		},
		{
			"buffer":0,
			"byteLength":12996,
			"byteOffset":456740,
			"target":34962
		},
		{
			"buffer":0,
			"byteLength":8664,
			"byteOffset":469736,
			"target":34962
		},
		{
			"buffer":0,
			"byteLength":3840,
			"byteOffset":478400,
			"target":34963
		}
	],
	"samplers":[
		{
			"magFilter":9729,
			"minFilter":9987
		}
	],
	"buffers":[
		{
			"byteLength":482240,
			"uri":"coach.bin"
		}
	]
}
